# Blender 5.1.2
# www.blender.org
mtllib earth.mtl
o earth
v -6.014769 4.349485 6.749269
v -9.313765 -1.622501 3.263686
v -3.810442 8.142609 4.474202
v -6.459770 7.164876 2.749600
v -8.200237 4.872561 2.985058
v -9.351873 1.172324 3.435172
v -0.244334 9.219601 3.918726
v -9.450974 3.223500 -0.329956
v -9.778979 -2.050776 -1.365734
v -4.189191 9.164504 0.527924
v -9.323563 0.313238 -3.552484
v -7.566612 -6.163217 -2.264625
v -5.750894 -7.469243 -3.315986
v -0.164720 9.994989 0.478179
v -7.893384 5.958284 -1.472786
v -7.667499 -3.395752 -5.599697
v -6.117065 6.941329 -3.800993
v -8.179329 2.627429 -5.236905
v -2.357190 9.353759 -2.637010
v -5.677466 4.035564 -7.146508
v -3.617586 7.303607 -5.746058
v -5.805155 -0.364868 -8.112350
v -4.400834 -7.027780 -5.632601
v -2.632410 4.980343 -8.255214
v -3.396821 0.526635 -9.399789
v -4.218991 -4.003900 -8.231276
v -0.049308 8.461303 -5.459621
v 3.527918 7.309666 -5.974372
v 1.100540 4.317044 -8.975369
v -1.107820 0.065546 -10.039229
v -1.563206 -5.759062 -8.100963
v 1.832916 9.729860 -1.635509
v 4.300989 2.721430 -8.578444
v 2.553614 -0.395118 -9.640060
v 2.331900 -4.078175 -8.883872
v -2.799888 -9.117590 -3.160031
v 6.822144 5.602431 -4.659446
v 5.864985 -0.542860 -8.079105
v 8.575469 -0.692409 -5.113873
v 6.313141 -3.592563 -6.888956
v 5.132497 8.564030 0.941095
v 5.881242 8.107592 -1.060321
v 8.103626 5.436397 -2.147453
v 8.963058 2.139608 -3.755835
v 4.236616 -6.480672 -6.356535
v 0.927995 -7.189495 -6.951968
v 9.146071 3.927457 1.649484
v 9.917824 1.125420 -0.550476
v 9.805155 -1.737339 -0.694922
v 8.555417 -4.706348 -2.306093
v 7.438068 6.246927 2.331628
v 6.243443 -7.095886 -3.363595
v 3.670655 -8.602510 -3.567685
v 2.189382 9.504667 2.357952
v 0.940654 -9.454759 -3.182279
v 5.785650 6.712914 4.660697
v 7.773547 3.388677 5.272636
v 8.958647 -3.682790 2.687967
v 8.850074 -0.603694 4.756533
v 6.827313 -7.182361 1.606080
v 6.982703 1.107503 7.070446
v 3.720032 -8.681252 3.352957
v 2.415844 -9.697948 -0.178232
v -0.097335 -9.934119 -1.185578
v 4.934433 3.252287 8.092241
v 5.623682 -5.260343 6.478190
v 4.477435 5.859941 6.735757
v 4.485675 -1.932272 8.785142
v 1.655309 -4.506605 8.724446
v -2.369687 -9.713910 0.270212
v 1.407098 -7.980658 5.935732
v 0.038205 -9.676236 2.434134
v 2.053818 2.381671 9.508849
v 0.754945 -1.166277 9.856503
v -1.726272 -4.432184 8.804133
v -1.708837 -8.197597 5.571594
v -3.668863 -8.738781 3.250669
v -1.662259 0.945417 9.835650
v -4.024313 -2.460195 8.793837
v -5.547179 -5.054992 6.598804
v -6.274235 -6.746694 3.880026
v -5.149752 -8.604121 0.121045
v -2.420886 7.120132 6.586084
v -2.569169 4.369744 8.627421
v -5.260705 1.922409 8.250184
v -6.973980 -0.426199 7.230689
v 0.828431 7.509493 6.569133
v -8.572641 -4.131278 3.243133
v -7.502974 -6.563567 0.648437
v 6.361772 4.048133 -6.621884
v 5.299148 -8.448823 0.516439
v 0.891640 5.092503 8.627796
v 3.049946 8.557173 4.313829
v -1.266183 -8.409433 -5.266456
vn -0.6208 0.4372 0.6508
vn -0.6549 0.7066 0.2681
vn -0.8261 0.4716 0.3084
vn -0.5221 -0.8528 0.0112
vn -0.7805 -0.5860 -0.2177
vn -0.5830 -0.7398 -0.3357
vn -0.7698 -0.6347 0.0678
vn -0.2503 0.7000 0.6688
vn -0.0589 0.9203 0.3867
vn -0.3850 0.8081 0.4458
vn -0.9304 0.1317 0.3422
vn -0.9721 -0.2050 -0.1143
vn -0.9336 -0.1538 0.3235
vn -0.8531 -0.4110 0.3216
vn -0.9537 0.2981 -0.0391
vn -0.7875 0.5992 -0.1441
vn -0.9312 0.0350 -0.3629
vn -0.4238 0.9049 0.0395
vn -0.7663 -0.3252 -0.5540
vn -0.6129 0.6951 -0.3759
vn -0.4540 -0.6832 -0.5720
vn -0.2880 -0.9080 -0.3043
vn 0.2232 0.9530 0.2050
vn -0.0446 0.9979 0.0477
vn -0.8134 0.2592 -0.5208
vn -0.2469 0.9310 -0.2687
vn -0.3618 0.7294 -0.5806
vn -0.5679 0.3985 -0.7202
vn -0.6094 -0.0240 -0.7925
vn -0.3589 0.0754 -0.9303
vn -0.4145 -0.3788 -0.8274
vn 0.2001 0.9607 -0.1923
vn -0.0012 0.8300 -0.5578
vn -0.1485 -0.5422 -0.8270
vn -0.2455 0.4933 -0.8345
vn -0.1212 -0.8353 -0.5363
vn -0.0921 -0.0042 -0.9957
vn 0.1054 0.4381 -0.8927
vn 0.2533 -0.0352 -0.9667
vn 0.3494 0.7260 -0.5923
vn 0.4195 0.2817 -0.8629
vn 0.2218 -0.3848 -0.8960
vn 0.1104 -0.7215 -0.6835
vn 0.5013 0.8576 0.1148
vn 0.6385 0.3780 -0.6704
vn 0.5916 -0.0443 -0.8050
vn 0.6820 0.5753 -0.4516
vn 0.6411 -0.3659 -0.6747
vn 0.4322 -0.6399 -0.6354
vn 0.5883 0.7957 -0.1441
vn 0.8249 0.5288 -0.1998
vn 0.9012 0.2198 -0.3736
vn 0.9936 0.1042 -0.0430
vn 0.8590 -0.0726 -0.5069
vn 0.8541 -0.4644 -0.2344
vn 0.6414 -0.6938 -0.3275
vn 0.7443 0.6299 0.2220
vn 0.3654 -0.8613 -0.3529
vn 0.9830 -0.1724 -0.0636
vn 0.1040 -0.9347 -0.3397
vn 0.3191 0.8372 0.4442
vn 0.5968 0.6546 0.4640
vn 0.8902 -0.3660 0.2714
vn 0.7050 -0.6876 0.1739
vn 0.9120 0.3786 0.1580
vn 0.8818 -0.0721 0.4660
vn 0.5243 -0.8514 0.0161
vn 0.2573 -0.9663 -0.0072
vn 0.3783 -0.8559 0.3526
vn -0.0158 -0.9946 -0.1022
vn 0.5731 -0.5181 0.6349
vn 0.6885 0.0722 0.7216
vn 0.4658 -0.1823 0.8659
vn 0.0123 -0.9675 0.2528
vn 0.4938 0.3158 0.8102
vn 0.1541 -0.7741 0.6141
vn 0.1686 -0.4731 0.8647
vn -0.1863 -0.7921 0.5813
vn -0.2358 -0.9711 0.0359
vn 0.2107 0.2114 0.9544
vn 0.0700 -0.1279 0.9893
vn 0.4425 0.5800 0.6840
vn 0.0852 0.7454 0.6611
vn -0.1677 -0.4567 0.8737
vn -0.1771 0.0812 0.9808
vn -0.3991 -0.2287 0.8879
vn -0.5530 -0.5030 0.6642
vn -0.6148 -0.6794 0.4006
vn -0.2577 0.4323 0.8641
vn -0.5162 0.1757 0.8383
vn -0.7093 -0.0513 0.7030
vn 0.0860 0.5025 0.8603
vn 0.7826 0.3453 0.5179
vn -0.3731 -0.8647 0.3362
vt 0.758372 0.666607
vt 0.671035 0.691309
vt 0.693624 0.607342
vt 0.802524 0.149383
vt 0.679604 0.196656
vt 0.666475 0.115496
vt 0.748999 0.231291
vt 0.776141 0.803967
vt 0.698137 0.912088
vt 0.699409 0.793806
vt 0.716439 0.505146
vt 0.665943 0.345923
vt 0.736758 0.417385
vt 0.760297 0.348216
vt 0.649070 0.515455
vt 0.613093 0.591514
vt 0.614077 0.390872
vt 0.601893 0.762740
vt 0.585635 0.262880
vt 0.562193 0.607929
vt 0.532507 0.108155
vt 0.709729 0.029222
vt 0.504485 0.945960
vt 0.523696 0.861700
vt 0.572080 0.454693
vt 0.522153 0.739743
vt 0.507872 0.617004
vt 0.520790 0.489077
vt 0.517050 0.345171
vt 0.467268 0.382768
vt 0.483890 0.233154
vt 0.427295 0.821320
vt 0.454710 0.688049
vt 0.409390 0.179634
vt 0.469639 0.524782
vt 0.481703 0.036642
vt 0.486994 0.009605
vt 0.419948 0.383525
vt 0.337623 0.062849
vt 0.411200 0.528363
vt 0.363750 0.395399
vt 0.382980 0.672412
vt 0.353999 0.511700
vt 0.338538 0.287565
vt 0.316716 0.167314
vt 0.278831 0.878896
vt 0.321559 0.577305
vt 0.308277 0.438481
vt 0.308959 0.664325
vt 0.267617 0.368786
vt 0.254546 0.252752
vt 0.294876 0.800802
vt 0.259292 0.705226
vt 0.248987 0.587344
vt 0.190799 0.603039
vt 0.247125 0.483485
vt 0.179012 0.406750
vt 0.182900 0.296033
vt 0.181689 0.813619
vt 0.180407 0.202322
vt 0.172590 0.517233
vt 0.151426 0.107399
vt 0.202353 0.010583
vt 0.210938 0.028646
vt 0.100326 0.953801
vt 0.105263 0.863648
vt 0.112704 0.495063
vt 0.099297 0.370045
vt 0.169799 0.716574
vt 0.092491 0.610168
vt 0.095419 0.286858
vt 0.070723 0.200783
vt 0.036629 0.309698
vt 0.037355 0.111486
vt 0.030583 0.467064
vt 0.044178 0.675727
vt 0.003791 0.596139
vt 0.002187 0.212210
vt 0.011829 0.740512
vt 0.002698 0.331162
vt 0.983850 0.583440
vt 0.953147 0.483242
vt 0.996481 0.427486
vt 0.974432 0.351358
vt 0.918831 0.311899
vt 0.975115 0.212911
vt 0.997651 0.113713
vt 0.915577 0.130137
vt 0.935258 0.704792
vt 0.924899 0.589436
vt 0.985396 0.861801
vt 0.913231 0.942378
vt 0.853739 0.878819
vt 0.901382 0.459760
vt 0.875425 0.631631
vt 0.856215 0.499498
vt 0.836941 0.384045
vt 0.814767 0.289830
vt 0.827517 0.722045
vt 0.808013 0.613290
vt 0.792917 0.511024
vt 0.896941 0.789878
vt 0.796875 1.000000
vt 0.092061 0.740310
vt 0.022189 0.846482
vt 0.078301 0.034470
vt 0.983896 0.742537
vt 0.878341 0.233259
s 1
usemtl earth
f 1/1/1 4/2/2 5/3/3
f 82/4/4 12/5/5 13/6/6
f 82/4/4 89/7/7 12/5/5
f 83/8/8 7/9/9 3/10/10
f 6/11/11 9/12/12 2/13/13
f 88/14/14 2/13/13 9/12/12
f 6/11/11 8/15/15 9/12/12
f 5/3/3 8/15/15 6/11/11
f 4/2/2 15/16/16 5/3/3
f 9/12/12 8/15/15 11/17/17
f 3/10/10 7/9/9 10/18/18
f 12/5/5 9/12/12 16/19/19
f 9/12/12 11/17/17 16/19/19
f 15/16/16 10/18/18 17/20/20
f 16/19/19 23/21/21 13/6/6
f 13/6/6 23/21/21 36/22/22
f 54/23/23 14/24/24 7/9/9
f 11/17/17 18/25/25 16/19/19
f 9/12/12 12/5/5 89/7/7 88/14/14
f 17/20/20 19/26/26 21/27/27
f 17/20/20 20/28/28 18/25/25
f 18/25/25 20/28/28 22/29/29
f 20/28/28 25/30/30 22/29/29
f 16/19/19 22/29/29 26/31/31
f 19/26/26 32/32/32 27/33/33
f 26/31/31 31/34/34 23/21/21
f 21/27/27 24/35/35 20/28/28
f 23/21/21 94/36/36 36/37/22
f 20/28/28 24/35/35 25/30/30
f 25/30/30 24/35/35 30/38/37
f 14/24/24 54/23/23 32/32/32
f 30/38/37 31/34/34 26/31/31
f 31/34/34 94/39/36 23/21/21
f 30/38/37 29/40/38 34/41/39
f 32/32/32 28/42/40 27/33/33
f 29/40/38 28/42/40 33/43/41
f 31/34/34 35/44/42 46/45/43
f 32/32/32 54/23/23 41/46/44
f 33/43/41 90/47/45 38/48/46
f 34/41/39 33/43/41 38/48/46
f 34/41/39 38/48/46 35/44/42
f 28/42/40 37/49/47 90/47/45
f 40/50/48 45/51/49 35/44/42
f 42/52/50 43/53/51 37/49/47
f 35/44/42 45/51/49 46/45/43
f 37/49/47 44/54/52 90/47/45
f 44/54/52 48/55/53 39/56/54
f 39/56/54 50/57/55 40/50/48
f 40/50/48 52/58/56 45/51/49
f 41/46/44 51/59/57 42/52/50
f 45/51/49 52/58/56 53/60/58
f 48/55/53 49/61/59 39/56/54
f 55/62/60 36/63/22 94/64/36
f 39/56/54 49/61/59 50/57/55
f 41/46/44 93/65/61 56/66/62
f 58/67/63 60/68/64 50/57/55
f 47/69/65 59/70/66 48/55/53
f 53/60/58 91/71/67 63/72/68
f 60/68/64 62/73/69 91/71/67
f 55/62/60 63/72/68 64/74/70
f 58/67/63 59/70/66 66/75/71
f 59/70/66 61/76/72 68/77/73
f 60/68/64 66/75/71 62/73/69
f 63/72/68 62/73/69 72/78/74
f 61/76/72 65/79/75 68/77/73
f 66/75/71 71/80/76 62/73/69
f 68/81/73 69/82/77 66/83/71
f 71/84/76 76/85/78 72/86/74
f 64/87/70 72/86/74 70/88/79
f 68/81/73 73/89/80 74/90/81
f 67/91/82 93/92/61 87/93/83
f 71/84/76 75/94/84 76/85/78
f 75/94/84 78/95/85 79/96/86
f 75/94/84 80/97/87 76/85/78
f 75/94/84 79/96/86 80/97/87
f 76/85/78 80/97/87 81/98/88
f 84/99/89 85/100/90 78/95/85
f 78/95/85 85/100/90 79/96/86
f 79/96/86 86/101/91 80/97/87
f 87/93/83 83/8/8 92/102/92
f 80/97/87 86/101/91 88/14/14
f 81/98/88 89/7/7 82/4/4
f 7/9/9 93/92/61 54/103/23
f 86/101/91 1/1/1 6/11/11
f 81/98/88 88/14/14 89/7/7
f 6/11/11 1/1/1 5/3/3
f 82/4/4 13/6/6 36/22/22
f 1/1/1 3/10/10 4/2/2
f 47/69/65 48/55/53 44/54/52 43/53/51
f 4/2/2 3/10/10 10/18/18
f 5/3/3 15/16/16 8/15/15
f 11/17/17 8/15/15 18/25/25
f 10/18/18 7/9/9 14/24/24
f 4/2/2 10/18/18 15/16/16
f 13/6/6 12/5/5 16/19/19
f 8/15/15 15/16/16 18/25/25
f 15/16/16 17/20/20 18/25/25
f 16/19/19 18/25/25 22/29/29
f 10/18/18 14/24/24 19/26/26
f 10/18/18 19/26/26 17/20/20
f 23/21/21 16/19/19 26/31/31
f 17/20/20 21/27/27 20/28/28
f 19/26/26 14/24/24 32/32/32
f 21/27/27 19/26/26 27/33/33
f 22/29/29 25/30/30 26/31/31
f 24/35/35 21/27/27 27/33/33
f 24/35/35 27/33/33 29/40/38
f 24/35/35 29/40/38 30/38/37
f 25/30/30 30/38/37 26/31/31
f 29/40/38 27/33/33 28/42/40
f 30/38/37 34/41/39 35/44/42
f 28/42/40 32/32/32 42/52/50
f 31/34/34 30/38/37 35/44/42
f 28/42/40 90/47/45 33/43/41
f 31/34/34 46/45/43 94/39/36
f 34/41/39 29/40/38 33/43/41
f 32/32/32 41/46/44 42/52/50
f 28/42/40 42/52/50 37/49/47
f 38/48/46 90/47/45 39/56/54
f 54/23/23 93/65/61 41/46/44
f 35/44/42 38/48/46 40/50/48
f 40/50/48 38/48/46 39/56/54
f 37/49/47 43/53/51 44/54/52
f 90/47/45 44/54/52 39/56/54
f 51/59/57 47/69/65 43/53/51 42/52/50
f 46/45/43 45/51/49 53/60/58
f 46/45/43 53/60/58 55/62/60
f 94/39/36 46/45/43 55/62/60
f 40/50/48 50/57/55 52/58/56
f 58/67/63 49/61/59 48/55/53 59/70/66
f 41/46/44 56/66/62 51/59/57
f 52/58/56 50/57/55 60/68/64
f 52/58/56 60/68/64 91/71/67
f 52/58/56 91/71/67 53/60/58
f 53/60/58 63/72/68 55/62/60
f 57/104/93 47/69/65 51/59/57 56/66/62
f 50/57/55 49/61/59 58/67/63
f 65/79/75 57/104/93 56/66/62 67/105/82
f 47/69/65 57/104/93 59/70/66
f 91/71/67 62/73/69 63/72/68
f 57/104/93 61/76/72 59/70/66
f 55/62/60 64/74/70 36/106/22
f 58/67/63 66/75/71 60/68/64
f 66/75/71 59/70/66 68/77/73
f 56/66/62 93/65/61 67/105/82
f 57/104/93 65/79/75 61/76/72
f 62/73/69 71/80/76 72/78/74
f 63/72/68 72/78/74 64/74/70
f 66/83/71 69/82/77 71/84/76
f 68/81/73 65/107/75 73/89/80
f 64/87/70 70/88/79 36/22/22
f 69/82/77 68/81/73 74/90/81
f 67/91/82 87/93/83 92/102/92
f 67/91/82 92/102/92 65/107/75
f 73/89/80 65/107/75 92/102/92
f 71/84/76 69/82/77 75/94/84
f 72/86/74 76/85/78 77/108/94
f 74/90/81 73/89/80 78/95/85
f 70/88/79 72/86/74 77/108/94
f 69/82/77 74/90/81 75/94/84
f 73/89/80 92/102/92 78/95/85
f 74/90/81 78/95/85 75/94/84
f 77/108/94 76/85/78 81/98/88
f 78/95/85 92/102/92 84/99/89
f 70/88/79 77/108/94 82/4/4
f 77/108/94 81/98/88 82/4/4
f 70/88/79 82/4/4 36/22/22
f 79/96/86 85/100/90 86/101/91
f 92/102/92 83/8/8 84/99/89
f 93/92/61 7/9/9 87/93/83
f 81/98/88 80/97/87 88/14/14
f 1/1/1 84/99/89 83/8/8
f 84/99/89 1/1/1 85/100/90
f 85/100/90 1/1/1 86/101/91
f 86/101/91 6/11/11 2/13/13
f 88/14/14 86/101/91 2/13/13
f 87/93/83 7/9/9 83/8/8
f 1/1/1 83/8/8 3/10/10
